<svg width="40" height="52" viewBox="0 0 40 52" fill="none" xmlns="http://www.w3.org/2000/svg"><path d="M12.5 2C10.1.8 7.5.091 5 1 .6 2.6.5 11.667 1 16c.5.167 2.3.7 5.5 1.5s6 1 7 1c.5-1.167 2.8-3.5 8-3.5s7.167 2.333 7.5 3.5c1 0 2.5-.5 5.5-1 3.487-.581 4.834-1.333 5.5-1.5 0-4-.5-12-2.5-14S32.333.5 31 1c-2.5 1.167-6.5 3.5-10 3.5-3 0-5.5-1-8.5-2.5zM8 21.5c-2.8-.4-5.5-1.167-6.5-1.5C5 35 10.5 41 12 41s2.5-1 4-3.5 3.5-5.5 5-5.5 2 1.5 3 3 3.5 6.5 5.5 6 5-5 7-10c1.6-4 2.667-9 3-11l-5 1c-2 .4-4.5.833-5.5 1-.667 1.167-3.2 3.5-8 3.5s-7.333-2.333-8-3.5c-.5 0-2.2-.1-5-.5zM20.5 49c-6.812 0-14.833-4.833-18-7.5 2.5 3.333 9.6 10 18 10s15.833-6.667 18.5-10C35.667 43.833 27.5 49 20.5 49z" fill="#fff"/><path d="M16.5 19v-3.5l1-1V19h-1zm8.5 0v-3.5l1-1V19h-1zm0 3v3.5l1 1V22h-1zm-8.5 0v3.5l1 1V22h-1z" fill="#fff"/></svg>