<svg width="73" height="45" viewBox="0 0 73 45" fill="none" xmlns="http://www.w3.org/2000/svg"><path d="M43.66 22.5c0 11.998-9.752 21.723-21.78 21.723C9.85 44.223.1 34.498.1 22.5.1 10.503 9.85.776 21.88.776c12.028 0 21.78 9.727 21.78 21.724z" fill="#D9222A"/><path d="M51.12.776A21.731 21.731 0 0036.498 6.4a22.104 22.104 0 00-2.2 2.299H38.7c.602.73 1.156 1.497 1.66 2.3h-7.72a21.633 21.633 0 00-1.255 2.3h10.23c.349.746.657 1.513.922 2.3H30.463c-.252.75-.464 1.517-.633 2.301h13.34a21.776 21.776 0 01-.633 11.5H30.462c.264.788.573 1.556.922 2.3h10.23a21.682 21.682 0 01-1.255 2.301h-7.72a21.93 21.93 0 001.66 2.3h4.4a21.73 21.73 0 01-2.2 2.3 21.732 21.732 0 0014.62 5.622c12.03 0 21.78-9.725 21.78-21.723C72.9 10.503 63.15.776 51.12.776z" fill="#EE9F2D"/><path d="M69.997 34.61a.703.703 0 111.406 0 .703.703 0 01-1.406 0zm.703.533a.534.534 0 10.002-1.069.534.534 0 00-.002 1.069zm-.095-.225h-.144V34.3h.261c.055 0 .11 0 .158.03.05.034.079.094.079.156a.17.17 0 01-.108.158l.114.273h-.16l-.094-.244h-.106v.244zm0-.35h.08c.03 0 .061.002.088-.012a.084.084 0 00.036-.07.077.077 0 00-.035-.063c-.025-.016-.065-.013-.092-.013h-.077v.158zm-53.811-9.689a3.943 3.943 0 00-.528-.037c-1.34 0-2.018.459-2.018 1.364 0 .558.33.913.847.913.964 0 1.658-.915 1.7-2.24zm1.72 3.993h-1.96l.046-.93c-.598.735-1.395 1.084-2.479 1.084-1.282 0-2.16-.998-2.16-2.448 0-2.181 1.528-3.454 4.152-3.454.268 0 .611.024.963.069.073-.296.093-.422.093-.581 0-.594-.412-.815-1.517-.815a7.856 7.856 0 00-2.502.403l.327-2.016c1.178-.344 1.955-.474 2.83-.474 2.03 0 3.106.91 3.104 2.627.004.461-.073 1.03-.192 1.776-.205 1.299-.645 4.08-.706 4.759zm-7.542-.001H8.607l1.354-8.47-3.024 8.47H5.326l-.2-8.422-1.423 8.422H1.49l1.848-11.02h3.4l.207 6.169 2.073-6.168H12.8L10.971 28.87zm43.07-3.992a3.926 3.926 0 00-.527-.037c-1.34 0-2.018.459-2.018 1.364 0 .558.33.913.847.913.963 0 1.658-.915 1.698-2.24zm1.72 3.993h-1.959l.045-.93c-.598.735-1.395 1.084-2.478 1.084-1.282 0-2.16-.998-2.16-2.448 0-2.181 1.528-3.454 4.152-3.454.267 0 .61.024.962.069.074-.296.093-.422.093-.581 0-.594-.412-.815-1.516-.815a7.868 7.868 0 00-2.503.403l.328-2.016c1.179-.344 1.955-.474 2.829-.474 2.031 0 3.106.91 3.105 2.627.004.461-.073 1.03-.192 1.776-.204 1.299-.646 4.08-.705 4.759zm-26.74-.137c-.647.204-1.152.29-1.699.29-1.209 0-1.868-.692-1.868-1.968-.017-.396.174-1.437.324-2.388.136-.837 1.025-6.115 1.025-6.115h2.35l-.274 1.356h1.42l-.321 2.154h-1.425c-.273 1.704-.662 3.827-.666 4.108 0 .462.247.664.81.664.269 0 .477-.027.637-.085l-.313 1.984zm7.206-.072a8.036 8.036 0 01-2.412.363c-2.631-.003-4.003-1.373-4.003-3.998 0-3.063 1.745-5.318 4.114-5.318 1.937 0 3.175 1.263 3.175 3.243 0 .657-.085 1.298-.29 2.204h-4.68c-.158 1.3.676 1.841 2.043 1.841.841 0 1.6-.173 2.444-.564l-.391 2.229zm-1.321-5.313c.013-.187.25-1.6-1.094-1.6-.748 0-1.284.57-1.502 1.6h2.596zm-14.976-.607c0 1.134.552 1.915 1.801 2.502.958.449 1.106.582 1.106.989 0 .559-.422.81-1.358.81-.705 0-1.361-.109-2.118-.353l-.325 2.07c.537.117 1.016.225 2.46.265 2.495 0 3.647-.948 3.647-2.995 0-1.232-.482-1.954-1.666-2.497-.992-.454-1.106-.555-1.106-.974 0-.484.393-.732 1.158-.732.464 0 1.098.05 1.698.135l.337-2.079a16.073 16.073 0 00-2.08-.174c-2.646 0-3.562 1.378-3.553 3.033zm27.796-2.797c.657 0 1.27.172 2.113.595l.387-2.391c-.346-.136-1.566-.932-2.599-.932-1.582 0-2.92.783-3.86 2.075-1.373-.453-1.937.463-2.628 1.376l-.615.143c.047-.3.089-.6.075-.902h-2.172c-.296 2.774-.822 5.583-1.234 8.36l-.107.602h2.365c.395-2.559.612-4.197.743-5.306l.89-.494c.134-.493.55-.66 1.386-.64-.109.585-.168 1.2-.168 1.837 0 2.932 1.586 4.757 4.132 4.757.655 0 1.218-.086 2.09-.321l.415-2.513c-.783.385-1.426.566-2.009.566-1.374 0-2.206-1.012-2.206-2.684 0-2.427 1.237-4.128 3.002-4.128z" fill="#000"/><path d="M11.652 28.217H9.287l1.355-8.47-3.024 8.47H6.006l-.199-8.421-1.423 8.421H2.17l1.85-11.018h3.4l.095 6.821 2.293-6.82h3.673l-1.829 11.017z" fill="#fff"/><path d="M67.746 17.852l-.524 3.184c-.647-.848-1.342-1.462-2.259-1.462-1.193 0-2.279.902-2.99 2.23a19.63 19.63 0 01-2.013-.553v.008c.08-.742.111-1.195.104-1.349h-2.172c-.296 2.774-.822 5.583-1.233 8.36l-.108.602h2.365c.32-2.069.564-3.787.744-5.15.808-.728 1.213-1.363 2.03-1.32a7.661 7.661 0 00-.574 2.906c0 2.24 1.136 3.718 2.855 3.718.867 0 1.532-.298 2.18-.989l-.11.834h2.236l1.801-11.018h-2.332zm-2.957 8.949c-.805 0-1.211-.594-1.211-1.767 0-1.76.76-3.01 1.833-3.01.813 0 1.252.618 1.252 1.756 0 1.776-.773 3.02-1.874 3.02z" fill="#000"/><path d="M17.474 24.226a3.966 3.966 0 00-.527-.037c-1.34 0-2.019.459-2.019 1.364 0 .557.331.913.847.913.964 0 1.658-.915 1.699-2.24zm1.72 3.991h-1.959l.045-.927c-.597.733-1.396 1.083-2.478 1.083-1.282 0-2.16-.998-2.16-2.448 0-2.183 1.527-3.454 4.151-3.454.268 0 .612.024.963.069.074-.296.093-.422.093-.582 0-.594-.412-.814-1.516-.814a7.917 7.917 0 00-2.503.402l.327-2.014c1.178-.346 1.956-.475 2.83-.475 2.03 0 3.107.91 3.105 2.626.003.463-.074 1.03-.193 1.776-.204 1.298-.645 4.082-.705 4.758zm31.714-10.721l-.387 2.392c-.844-.423-1.456-.595-2.113-.595-1.765 0-3.002 1.701-3.002 4.128 0 1.672.832 2.684 2.206 2.684.582 0 1.225-.18 2.008-.566l-.415 2.511c-.871.237-1.433.323-2.09.323-2.545 0-4.131-1.825-4.131-4.757 0-3.939 2.19-6.692 5.325-6.692 1.032 0 2.252.436 2.599.572zm3.815 6.73a3.961 3.961 0 00-.528-.037c-1.34 0-2.018.459-2.018 1.364 0 .557.331.913.848.913.963 0 1.657-.915 1.698-2.24zm1.72 3.991h-1.96l.046-.927c-.598.733-1.396 1.083-2.478 1.083-1.282 0-2.16-.998-2.16-2.448 0-2.183 1.528-3.454 4.15-3.454.27 0 .612.024.964.069.073-.296.093-.422.093-.582 0-.594-.412-.814-1.516-.814a7.922 7.922 0 00-2.503.402l.328-2.014c1.178-.346 1.955-.475 2.829-.475 2.031 0 3.106.91 3.104 2.626.004.463-.072 1.03-.192 1.776-.204 1.298-.646 4.082-.705 4.758zm-26.741-.135c-.647.203-1.152.291-1.698.291-1.209 0-1.869-.693-1.869-1.969-.016-.396.175-1.437.325-2.388.136-.838 1.024-6.116 1.024-6.116h2.35l-.274 1.357h1.207l-.322 2.153h-1.21c-.273 1.705-.663 3.827-.667 4.109 0 .463.248.663.81.663.27 0 .477-.026.637-.083l-.313 1.983zm7.206-.072a8.06 8.06 0 01-2.411.363c-2.631-.003-4.003-1.373-4.003-3.998 0-3.064 1.745-5.318 4.113-5.318 1.938 0 3.176 1.262 3.176 3.243 0 .658-.085 1.299-.29 2.204h-4.68c-.158 1.3.676 1.842 2.043 1.842.84 0 1.6-.173 2.443-.566l-.39 2.23zm-1.32-5.314c.013-.186.249-1.6-1.095-1.6-.748 0-1.283.571-1.501 1.6h2.595zm-14.976-.606c0 1.134.55 1.914 1.8 2.502.958.449 1.106.583 1.106.99 0 .558-.422.81-1.357.81-.706 0-1.362-.11-2.12-.354l-.324 2.07c.537.117 1.017.224 2.46.265 2.496 0 3.648-.947 3.648-2.995 0-1.232-.482-1.954-1.667-2.497-.991-.455-1.106-.555-1.106-.974 0-.484.394-.733 1.158-.733.463 0 1.097.05 1.699.136l.336-2.079a16.055 16.055 0 00-2.08-.174c-2.646 0-3.56 1.377-3.553 3.033zm48.346 6.127H66.72l.11-.834c-.648.692-1.313.99-2.18.99-1.718 0-2.854-1.478-2.854-3.719 0-2.98 1.762-5.493 3.847-5.493.917 0 1.611.374 2.257 1.222l.525-3.184h2.332l-1.8 11.018zm-3.488-2.07c1.1 0 1.874-1.245 1.874-3.02 0-1.138-.44-1.756-1.252-1.756-1.073 0-1.835 1.248-1.835 3.01 0 1.172.408 1.765 1.213 1.765zm-6.897-6.89c-.296 2.773-.822 5.582-1.233 8.358l-.108.602h2.365c.846-5.48 1.05-6.55 2.377-6.415.21-1.122.604-2.104.897-2.6-.99-.205-1.543.353-2.267 1.413.057-.458.162-.903.14-1.358h-2.17m-19.465 0c-.297 2.773-.823 5.582-1.234 8.358l-.107.602h2.366c.844-5.48 1.049-6.55 2.374-6.415.212-1.122.606-2.104.898-2.6-.99-.205-1.543.353-2.266 1.413.057-.458.16-.903.14-1.358h-2.17m30.886 8.258c0-.388.315-.701.703-.701a.702.702 0 110 1.403.703.703 0 01-.703-.702zm.703.533a.534.534 0 10.002-1.067.534.534 0 00-.002 1.067zm-.095-.226h-.144v-.615h.261c.054 0 .11 0 .158.03.05.035.079.093.079.155a.17.17 0 01-.108.16l.115.27h-.16l-.095-.243h-.106v.243zm0-.348h.08c.03 0 .062.002.088-.013a.084.084 0 00.036-.07.082.082 0 00-.035-.064c-.025-.014-.066-.01-.093-.01h-.076v.157z" fill="#fff"/></svg>