<svg width="88" height="28" viewBox="0 0 88 28" fill="none" xmlns="http://www.w3.org/2000/svg"><path fill-rule="evenodd" clip-rule="evenodd" d="M33.048 1.212l-11.021 25.63-7.41.01L8.342 5.383l-.508-1.617.042.023.069.038-.068-.035v-.003l.097.054c1.13.598 6.141 3.456 9.24 8.085.472 2.355.923 4.494 1.561 6.801l6.856-17.517h7.417zm29.813 17.262c-.051 5.336-4.824 8.78-12.182 8.78-3.136-.033-6.16-.65-7.803-1.37l.983-5.749.905.414c2.304.959 3.79 1.343 6.593 1.343 2.014 0 4.167-.79 4.182-2.513.01-1.125-.904-1.924-3.629-3.182-2.653-1.23-6.17-3.287-6.125-6.977.034-4.993 4.913-8.474 11.83-8.474 2.708 0 4.877.554 6.268 1.08l-.95 5.564-.634-.299a12.904 12.904 0 00-5.238-.983c-2.734 0-4.008 1.143-4.008 2.214-.009 1.195 1.486 1.996 3.93 3.182 4.042 1.829 5.914 4.052 5.879 6.97zM81.839 1.212h-5.405c-1.678 0-2.936.457-3.665 2.135L62.37 26.877h7.347s1.203-3.164 1.478-3.86c.799 0 7.945.019 8.964.019.203.898.844 3.84.844 3.84H87.5L81.839 1.213zM73.207 17.77c1.258-3.194 2.52-6.412 3.717-9.632.69 3.213 1.394 6.422 2.093 9.632h-5.81zM35.879 1.185h6.997l-4.378 25.682h-6.996l4.377-25.682z" fill="#006CB5"/><path fill-rule="evenodd" clip-rule="evenodd" d="M.5.958l11.84.008c1.46.052 2.637.518 3.051 2.081l1.823 8.88c-3.099-4.63-8.11-7.487-9.24-8.085l-.098-.054.001.003.068.035-.069-.038A30.134 30.134 0 00.5.958z" fill="#FAA841"/></svg>