<svg width="106" height="30" viewBox="0 0 106 30" fill="none" xmlns="http://www.w3.org/2000/svg"><path fill-rule="evenodd" clip-rule="evenodd" d="M28.564 0v.013c-.013 0-4.14-.013-5.241 3.93a4272.482 4272.482 0 01-3.931 13.874h-.786S15.696 7.61 14.675 3.93C13.575-.013 9.434 0 9.434 0H0v30h9.434V12.183h.786L15.723 30h6.551l5.503-17.803h.787V30h9.434V0h-9.434zm34.46 0s-2.765.249-4.062 3.144L52.28 17.817h-.787V0H42.06v30h8.91s2.895-.262 4.192-3.144l6.552-14.673h.786V30h9.433V0h-8.91zm13.102 13.624V30h9.434v-9.564h10.22c4.455 0 8.228-2.843 9.63-6.812H76.126z" fill="#4DB45E"/><path fill-rule="evenodd" clip-rule="evenodd" d="M95.78 0H74.803c1.048 5.712 5.332 10.297 10.875 11.79a15.06 15.06 0 003.944.524h16.168c.145-.68.21-1.375.21-2.096C106 4.572 101.427 0 95.78 0z" fill="url(#paint0_linear_2842_463)"/><defs><linearGradient id="paint0_linear_2842_463" x1="74.805" y1="6.157" x2="106" y2="6.157" gradientUnits="userSpaceOnUse"><stop offset=".3" stop-color="#00B4E6"/><stop offset="1" stop-color="#088CCB"/></linearGradient></defs></svg>