<svg width="22" height="16" viewBox="0 0 22 16" fill="none" xmlns="http://www.w3.org/2000/svg"><path d="M9.384 5.517v0h0c.245 0 .436.144.52.332a.52.52 0 01-.122.599s0 0 0 0L7.386 8.77h0a.563.563 0 01-.781 0l2.778-3.253zm0 0H9.38a.562.562 0 00-.38.161L6.997 7.622 5.801 6.464a.521.521 0 00-.412-.162.587.587 0 00-.362.167.563.563 0 00-.175.357.5.5 0 00.169.407L6.606 8.77l2.778-3.253zM21.063 8.29h0l-3.2-4.861h0a.553.553 0 00-.463-.247h-3.45V2.167c0-.726-.614-1.317-1.35-1.317H2.2C1.464.85.85 1.44.85 2.167v8.555c0 .726.614 1.317 1.35 1.317h1.599c.742.01.742-1.088 0-1.078H2.2c-.15 0-.25-.103-.25-.239V2.167c0-.136.1-.24.25-.24h10.4c.15 0 .25.104.25.24v8.794H8.6a.53.53 0 00-.408.173.552.552 0 00-.134.37.523.523 0 00.543.535H14.2a.534.534 0 00.408-.171.548.548 0 00.136-.369.551.551 0 00-.138-.367.533.533 0 00-.406-.17h-.25v-6.7h3.15l2.95 4.48v1.98c0 .136-.1.24-.25.24H19a.53.53 0 00-.406.17.55.55 0 00-.136.368c0 .13.043.264.136.367a.53.53 0 00.406.172h.8c.736 0 1.35-.59 1.35-1.317V8.583a.534.534 0 00-.087-.292zM16.6 10.96c-1.179 0-2.15.938-2.15 2.095 0 1.156.971 2.094 2.15 2.094 1.179 0 2.15-.938 2.15-2.094 0-1.157-.971-2.095-2.15-2.095zm0 1.078c.588 0 1.05.455 1.05 1.017 0 .561-.462 1.016-1.05 1.016-.588 0-1.05-.455-1.05-1.016 0-.562.462-1.017 1.05-1.017zM6.2 10.96c-1.179 0-2.15.938-2.15 2.095 0 1.156.971 2.094 2.15 2.094 1.179 0 2.15-.938 2.15-2.094 0-1.157-.971-2.095-2.15-2.095zm0 1.078c.588 0 1.05.455 1.05 1.017 0 .561-.462 1.016-1.05 1.016-.588 0-1.05-.455-1.05-1.016 0-.562.462-1.017 1.05-1.017z" fill="#3297D7" stroke="#3297D7" stroke-width=".3"/></svg>