<svg width="24" height="31" viewBox="0 0 24 31" fill="none" xmlns="http://www.w3.org/2000/svg"><path d="M10.062 21.403l-.002-.002a4.17 4.17 0 00-2.968-1.244 3.238 3.238 0 01-3.219-3.219A4.169 4.169 0 002.63 13.97a3.13 3.13 0 01-.925-2.247c0-.838.353-1.676.925-2.248a4.169 4.169 0 001.244-2.968 3.238 3.238 0 013.22-3.219c1.1 0 2.15-.43 2.963-1.24a3.47 3.47 0 012.252-.837c.838 0 1.63.308 2.248.925h0l.003.004a4.322 4.322 0 002.964 1.194c1.76 0 3.173 1.453 3.173 3.22a4.17 4.17 0 001.244 2.967c1.233 1.232 1.235 3.261 0 4.543a4.169 4.169 0 00-1.244 2.966 3.238 3.238 0 01-3.219 3.22 4.169 4.169 0 00-2.968 1.244c-1.186 1.185-3.212 1.188-4.447-.09zm7.461-.207c2.3 0 4.166-1.869 4.166-4.212 0-.837.353-1.676.925-2.248 1.628-1.627 1.628-4.307 0-5.935a3.13 3.13 0 01-.925-2.248 4.217 4.217 0 00-4.212-4.211 3.245 3.245 0 01-2.248-.925c-1.628-1.628-4.307-1.628-5.935 0a3.13 3.13 0 01-2.248.925 4.217 4.217 0 00-4.211 4.211c0 .838-.354 1.676-.926 2.248C1.098 9.613.665 10.62.665 11.77c0 1.102.432 2.155 1.244 2.967a3.13 3.13 0 01.926 2.248 4.217 4.217 0 004.211 4.212c.837 0 1.676.353 2.248.925a4.169 4.169 0 002.968 1.244 4.25 4.25 0 002.965-1.242c.665-.62 1.46-.927 2.296-.927z" fill="#3297D7" stroke="#3297D7" stroke-width=".3"/><path d="M19.867 9.653l.016-.004.015-.008a.553.553 0 00.149-.103.553.553 0 00.103-.148.443.443 0 00.004-.403C18.977 5.702 15.83 3.45 12.308 3.45c-1.6 0-3.15.47-4.51 1.314h0l-.002.002a8.174 8.174 0 00-3.009 3.432h0a8.648 8.648 0 00-.798 3.617c0 4.606 3.759 8.365 8.365 8.365 4.61 0 8.273-3.809 8.273-8.411a.514.514 0 00-.52-.52.514.514 0 00-.518.52c0 4.024-3.301 7.327-7.374 7.373-4.024 0-7.327-3.301-7.373-7.374 0-1.132.227-2.17.723-3.162 1.313-2.536 3.94-4.164 6.743-4.164a7.36 7.36 0 016.918 4.879c.038.142.144.24.259.293.116.055.255.07.382.039z" fill="#3297D7" stroke="#3297D7" stroke-width=".3"/><path d="M19.672 10.11l-.045.023-.023.045a.712.712 0 00-.062.335v.027l.005.018c.062.249.258.39.468.39h.047c.14 0 .29-.07.364-.22l.003-.006a.815.815 0 00.067-.164.344.344 0 00-.016-.226c-.068-.24-.317-.44-.593-.37l-.04.01-.03.029a.491.491 0 01-.145.11z" fill="#3297D7" stroke="#3297D7" stroke-width=".3"/><path d="M17.05 10.422V10.4l-.007-.022c-.047-.148-.16-.293-.354-.3l-2.707-.415-1.196-2.579h0l-.006-.011a.445.445 0 00-.387-.222c-.143 0-.3.073-.366.236l-1.23 2.576-2.672.416c-.194.006-.306.15-.353.299a.463.463 0 00.109.461h0v.001l1.96 2.012-.508 2.77-.002.014v.014c0 .073.011.15.037.22a.36.36 0 00.132.173c.135.124.313.105.44.06l.012-.003.01-.006 2.427-1.326 2.409 1.316a.261.261 0 00.107.057.35.35 0 00.09.01h.01a.55.55 0 00.113-.008.259.259 0 00.138-.077.58.58 0 00.153-.377v-.013l-.002-.012-.472-2.811 1.952-2.004c.164-.123.163-.307.163-.412v-.014zm-2.867 1.924h0l-.001.001a.469.469 0 00-.114.18.387.387 0 00.001.231l.358 2.142-1.837-1.011a.262.262 0 00-.107-.057c-.038-.01-.074-.01-.091-.01h-.006c-.018 0-.053 0-.091.01a.262.262 0 00-.107.057L10.35 14.9l.359-2.152.002-.012v-.016c0-.037 0-.098-.012-.161a.414.414 0 00-.104-.212h0l-.002-.001-1.51-1.546 2.05-.306a.396.396 0 00.199-.075.448.448 0 00.147-.166h0l.909-1.935.908 1.934h0v.001c.05.104.162.236.347.241l2.049.306-1.51 1.546z" fill="#F54082" stroke="#F54082" stroke-width=".3"/><path d="M9.404 23.933h0l-.001.003-1.923 4.102-1.17-3.258-.003-.008-.004-.008a.555.555 0 00-.103-.149.555.555 0 00-.148-.103.443.443 0 00-.403-.004l-3.255 1.168 1.834-3.965a.457.457 0 00.014-.39.554.554 0 00-.267-.27.458.458 0 00-.392-.016.554.554 0 00-.271.267h0l-.002.004-2.354 5.077-.003.008-.003.008c-.052.157-.07.37.082.523a.509.509 0 00.523.128h0l.004-.001 3.92-1.426 1.426 3.919a.497.497 0 00.738.252.482.482 0 00.183-.188h0l.002-.004 2.396-5.16c.101-.155.142-.31.106-.455a.476.476 0 00-.263-.306.458.458 0 00-.391-.015.554.554 0 00-.272.267zm8.162.847l-1.123 3.205-1.784-3.864h0l-.002-.004a.497.497 0 00-.28-.253.609.609 0 00-.352-.01l-.016.004-.014.007a.497.497 0 00-.253.28.609.609 0 00-.01.352l.003.014.006.013 2.305 4.932c.08.225.305.278.462.278.199 0 .396-.13.464-.331l1.425-3.92L22.29 26.9c.09.078.19.115.296.105a.427.427 0 00.26-.13.472.472 0 00.133-.246c.018-.1 0-.204-.062-.302l-2.211-4.698h0l-.002-.004a.497.497 0 00-.28-.253.609.609 0 00-.352-.01l-.016.004-.014.008a.496.496 0 00-.253.28.609.609 0 00-.01.352l.003.014.006.013 1.695 3.643-3.254-1.168a.443.443 0 00-.403.004.552.552 0 00-.148.103.554.554 0 00-.103.149l-.005.008-.003.01z" fill="#3297D7" stroke="#3297D7" stroke-width=".3"/></svg>