<svg width="22" height="21" viewBox="0 0 22 21" fill="none" xmlns="http://www.w3.org/2000/svg"><path d="M10.167 14.382L9.914 12.6l.055-.055c1.283-.051 1.925-.392 1.925-1.023 0-.25-.088-.44-.264-.572-.176-.14-.425-.209-.748-.209-.594 0-1.144.253-1.65.759L8.22 10.389c.719-.792 1.617-1.188 2.695-1.188.807 0 1.452.202 1.936.605.484.403.726.968.726 1.694 0 1.18-.722 1.918-2.167 2.211l-.121.671h-1.122zM9.804 17v-1.76h1.782V17H9.804z" fill="#F54082"/><path d="M3.68 18.456L1.287 8.228A1 1 0 012.261 7h17.478a1 1 0 01.974 1.228L18.32 18.456A2 2 0 0116.373 20H5.627a2 2 0 01-1.947-1.544z" stroke="#3298D7" stroke-width="1.5"/><path d="M5 7l4-6m8 6l-4-6" stroke="#3298D7" stroke-width="1.5" stroke-linecap="round"/></svg>