<svg width="20" height="24" viewBox="0 0 20 24" fill="none" xmlns="http://www.w3.org/2000/svg"><path d="M5.05 17.5a6.75 6.75 0 0113.5 0v5.75H5.05V17.5z" stroke="#3297D7" stroke-width="1.5"/><circle cx="11.8" cy="4.5" r="3.75" stroke="#3297D7" stroke-width="1.5"/><path fill-rule="evenodd" clip-rule="evenodd" d="M6.586 12h-3v2.5H1v3h2.586V20h3v-2.5H9v-3H6.586V12z" fill="#fff"/><path d="M3.586 12v-.75a.75.75 0 00-.75.75h.75zm3 0h.75a.75.75 0 00-.75-.75V12zm-3 2.5v.75a.75.75 0 00.75-.75h-.75zM1 14.5v-.75a.75.75 0 00-.75.75H1zm0 3H.25c0 .414.336.75.75.75v-.75zm2.586 0h.75a.75.75 0 00-.75-.75v.75zm0 2.5h-.75c0 .414.336.75.75.75V20zm3 0v.75a.75.75 0 00.75-.75h-.75zm0-2.5v-.75a.75.75 0 00-.75.75h.75zM9 17.5v.75a.75.75 0 00.75-.75H9zm0-3h.75a.75.75 0 00-.75-.75v.75zm-2.414 0h-.75c0 .414.335.75.75.75v-.75zm-3-1.75h3v-1.5h-3v1.5zm.75 1.75V12h-1.5v2.5h1.5zM1 15.25h2.586v-1.5H1v1.5zm.75 2.25v-3H.25v3h1.5zm1.836-.75H1v1.5h2.586v-1.5zm.75 3.25v-2.5h-1.5V20h1.5zm2.25-.75h-3v1.5h3v-1.5zm-.75-1.75V20h1.5v-2.5h-1.5zM9 16.75H6.586v1.5H9v-1.5zm-.75-2.25v3h1.5v-3h-1.5zm-1.664.75H9v-1.5H6.586v1.5zM5.836 12v2.5h1.5V12h-1.5z" fill="#F54082"/></svg>