<svg width="33" height="33" viewBox="0 0 33 33" fill="none" xmlns="http://www.w3.org/2000/svg"><path d="M5.775.75h21.45a5.025 5.025 0 015.025 5.025v21.45a5.025 5.025 0 01-5.025 5.025H5.775A5.025 5.025 0 01.75 27.225V5.775A5.025 5.025 0 015.775.75z" stroke="#98CBEB" stroke-width="1.5"/><path d="M24.16 9.053L7.55 15.224c-.677.262-.76 1.052-.07 1.279l4.207 1.429 9.867-6a.192.192 0 01.24.047.174.174 0 01-.017.235l-7.763 6.715-.524 3.97a.284.284 0 00.033.178.3.3 0 00.134.126.315.315 0 00.353-.057l2.475-2.359 4.158 3.11a1 1 0 001.168-.21.923.923 0 00.206-.355l2.97-13.64a.548.548 0 00-.019-.311.57.57 0 00-.187-.255.602.602 0 00-.62-.073z" fill="#98CBEB"/></svg>