<svg width="33" height="33" viewBox="0 0 33 33" fill="none" xmlns="http://www.w3.org/2000/svg"><path d="M5.775.75h21.45a5.025 5.025 0 015.025 5.025v21.45a5.025 5.025 0 01-5.025 5.025H5.775A5.025 5.025 0 01.75 27.225V5.775A5.025 5.025 0 015.775.75z" stroke="#98CBEB" stroke-width="1.5"/><path d="M7.65 11.598h3.035a.31.31 0 01.292.205c.336.878 1.731 4.314 3.008 4.595.948 0 .612-4.571-.593-4.571-.316 0 .561-.57.62-.593a6.384 6.384 0 013.423 0c.605.256.707.974.723 1.583.016.61-.672 3.208.233 3.489 1.186.369 2.712-3.404 3.067-4.33a.316.316 0 01.293-.201h3.379a.314.314 0 01.264.143.322.322 0 01.028.302 30.097 30.097 0 01-2.493 4.619.645.645 0 00.063.802c1.012 1.099 3.778 4.21 2.197 4.21h-3.41a.612.612 0 01-.467-.212c-.53-.594-2.07-2.246-2.766-2.113-.577.108-.633 1.102-.605 1.752a.647.647 0 01-.157.458.63.63 0 01-.428.215 30.45 30.45 0 01-1.506.048c-2.41-.156-3.837-1.788-5.2-3.608a22.701 22.701 0 01-3.301-6.367.33.33 0 01.156-.389.318.318 0 01.144-.037z" fill="#98CBEB"/></svg>