<svg width="33" height="33" viewBox="0 0 33 33" fill="none" xmlns="http://www.w3.org/2000/svg"><path d="M5.775.75h21.45a5.025 5.025 0 015.025 5.025v21.45a5.025 5.025 0 01-5.025 5.025H5.775A5.025 5.025 0 01.75 27.225V5.775A5.025 5.025 0 015.775.75z" stroke="#98CBEB" stroke-width="1.5"/><path d="M16.5 9.375a1.75 1.75 0 110 3.5 1.75 1.75 0 010-3.5zm0-2.625a4.375 4.375 0 100 8.75 4.375 4.375 0 000-8.75zm0 12.47a8.218 8.218 0 01-4.226-1.168 1.226 1.226 0 011.26-2.1 5.876 5.876 0 006.023-.057 1.224 1.224 0 111.3 2.078A8.205 8.205 0 0116.5 19.22z" fill="#98CBEB"/><path d="M20 23.9a1.222 1.222 0 01-.866-.358L16.5 20.908l-2.634 2.634a1.226 1.226 0 01-1.999-1.335c.062-.148.152-.284.266-.397l4.367-4.367 4.366 4.367A1.225 1.225 0 0120 23.9z" fill="#98CBEB"/></svg>