<svg width="18" height="17" viewBox="0 0 18 17" fill="none" xmlns="http://www.w3.org/2000/svg"><path d="M2.694 9.181l-.085-.125C2.403 8.782 1 6.912 1 4.946c0-1.875.919-2.851 1.34-3.299a6.5 6.5 0 00.067-.071c.177-.197.37-.33.558-.42A1.59 1.59 0 013.635 1c.132 0 .791.029.791.029.02-.002.701-.046 1.06.819.039.092.233.566.437 1.064.318.778.664 1.622.724 1.744.062.122.111.257.127.409a.937.937 0 01-.096.52l-.001.001a2.33 2.33 0 00-.055.113c-.103.21-.178.367-.36.581l-.002.002c-.075.087-.136.162-.198.237-.135.164-.27.328-.39.448-.107.109-.154.347-.118.41.133.232.468.783.963 1.401a9.502 9.502 0 003.8 2.878c.103.046.188.083.274.126.135.067.232.097.303.088.051-.006.103-.044.163-.114v0c.142-.163.474-.55.752-.895.176-.217.337-.424.428-.563.182-.278.378-.395.603-.42.198-.023.383.035.595.112.15.055.531.23.96.435a91.39 91.39 0 011.663.816l.178.086c.325.155.542.259.667.467l.001.002c.083.139.127.5.071.957a5.278 5.278 0 01-.267 1.11c-.164.462-.593.9-1.084 1.246-.592.418-1.295.716-1.725.757a1.88 1.88 0 00-.274.052c-.531.13-1.126.275-4.41-1.02-3.62-1.43-6.003-4.95-6.52-5.717zm0 0L2.61 9.06l.084.121z" stroke="#3297D7"/></svg>